<?xml version="1.0" encoding="utf-8"?>
<!-- Generator: Adobe Illustrator 16.0.3, SVG Export Plug-In . SVG Version: 6.00 Build 0)  -->
<!DOCTYPE svg PUBLIC "-//W3C//DTD SVG 1.1//EN" "http://www.w3.org/Graphics/SVG/1.1/DTD/svg11.dtd">
<svg version="1.1" id="Layer_1" xmlns="http://www.w3.org/2000/svg" xmlns:xlink="http://www.w3.org/1999/xlink" x="0px" y="0px"
	 width="200px" height="200px" viewBox="0 0 200 200" enable-background="new 0 0 200 200" xml:space="preserve">
<g>
	<path fill="#FFFFFF" d="M167.963,22.75c-6.259,4.49-18.23,10.61-33.632,6.815C107.64,22.99,100,0,100,0
		s-7.639,22.994-34.331,29.565C50.26,33.36,38.291,27.238,32.038,22.75h-4.819v123.974c0.002,3.137,0.766,9.309,5.852,15.488
		c6.281,7.63,16.935,12.578,31.658,14.705c11.729,1.697,20.4,5.384,26.516,11.269C95.737,192.511,100,200,100,200
		s4.426-7.646,8.756-11.813c6.115-5.885,14.791-9.571,26.516-11.269c14.723-2.127,25.377-7.075,31.659-14.705
		c5.082-6.175,5.847-12.354,5.851-15.488V22.75H167.963z"/>
	<path fill="#013369" d="M168.414,27.584c0,0-14.59,11.355-35.143,6.22C109.309,27.815,100,9.868,100,9.868
		s-9.308,17.947-33.271,23.936c-20.552,5.136-35.142-6.22-35.142-6.22v119.134c0.003,4.049,1.695,21.243,33.768,25.878
		c12.663,1.833,22.122,5.903,28.918,12.443c2.448,2.348,4.308,4.739,5.728,6.933c1.424-2.193,3.276-4.585,5.721-6.933
		c6.804-6.54,16.263-10.61,28.926-12.443c32.07-4.635,33.762-21.829,33.768-25.878V27.584z"/>
	<path fill="#FFFFFF" enable-background="new    " d="M100,179.844c0,0,9.308-11.473,33.495-15.204
		c27.705-4.275,26.882-17.284,26.884-17.943V84.304H39.622v62.392c0,0.656-0.818,13.667,26.883,17.943
		C90.691,168.372,100,179.844,100,179.844z"/>
	<g>
		<path fill="#D50A0A" d="M71.852,129.904l-0.004-29.673l-3.726-2.087V90.45H85.08v7.694l-3.546,2.087v60.527l-9.064-2.717
			l-13.104-38.663l-0.002,25.489l4.161,3.196v7.855l-18.193-4.624v-6.696l4.163-1.628v-42.714l-4.265-2.112V90.45h13.768
			L71.852,129.904z"/>
		<path fill="#D50A0A" d="M103.066,157.041l3.632,4.351v7.693l-18.021-6.733v-6.531l3.978-1.629v-53.96l-3.954-2V90.45h31.291
			v15.659h-6.878l-2.084-6.429h-7.964v18.106h5.977l2.352-3.438h4.796v16.112h-4.796l-2.264-3.258h-6.064V157.041z"/>
		<path fill="#D50A0A" d="M122.96,159.765v-7.694l4.476-3.674v-48.166l-3.822-2V90.45h18.044v7.782l-3.546,2v45.188l7.754-2.095
			l1.487-11.843h7.418v19.785L122.96,159.765z"/>
	</g>
	<g>
		<g>
			<path fill="#FFFFFF" d="M42.761,71.54L37.3,67.431h6.674l2.204-6.323l2.204,6.323h6.674l-5.461,4.11l2.009,6.418l-5.426-3.812
				l-5.426,3.812L42.761,71.54z"/>
		</g>
		<g>
			<path fill="#FFFFFF" d="M66.456,71.54l-5.461-4.109h6.674l2.203-6.323l2.204,6.323h6.675l-5.461,4.11l2.009,6.418l-5.427-3.812
				l-5.426,3.812L66.456,71.54z"/>
		</g>
		<g>
			<path fill="#FFFFFF" d="M42.761,50.156L37.3,46.047h6.674l2.204-6.324l2.204,6.324h6.674l-5.461,4.109l2.009,6.418l-5.426-3.813
				l-5.426,3.813L42.761,50.156z"/>
		</g>
		<g>
			<path fill="#FFFFFF" d="M66.456,50.156l-5.461-4.109h6.674l2.203-6.324l2.204,6.324h6.675l-5.461,4.109l2.009,6.418l-5.427-3.813
				l-5.426,3.813L66.456,50.156z"/>
		</g>
	</g>
	<g>
		<g>
			<path fill="#FFFFFF" d="M159.25,77.959l-5.427-3.813l-5.426,3.813l2.008-6.419l-5.46-4.11h6.674l2.204-6.323l2.203,6.323h6.674
				l-5.46,4.11L159.25,77.959z"/>
		</g>
		<g>
			<path fill="#FFFFFF" d="M135.555,77.959l-5.427-3.813l-5.427,3.813l2.01-6.419l-5.462-4.11h6.675l2.204-6.323l2.204,6.323h6.674
				l-5.462,4.11L135.555,77.959z"/>
		</g>
		<g>
			<path fill="#FFFFFF" d="M159.25,56.575l-5.427-3.813l-5.426,3.813l2.008-6.419l-5.46-4.11h6.674l2.204-6.323l2.203,6.323h6.674
				l-5.46,4.11L159.25,56.575z"/>
		</g>
		<g>
			<path fill="#FFFFFF" d="M135.555,56.575l-5.427-3.813l-5.427,3.813l2.01-6.419l-5.462-4.11h6.675l2.204-6.323l2.204,6.323h6.674
				l-5.462,4.11L135.555,56.575z"/>
		</g>
	</g>
	<path fill="#FFFFFF" d="M115.044,33.001c0,0-2.829,1.474-6.776,5.356c0.891,0.503,1.893,1.208,2.467,1.684
		c-0.596,0.529-1.206,1.099-1.772,1.636c-2.568-2.117-5.243-3.192-7.315-3.698c0.688-0.493,1.418-0.978,2.14-1.448
		c1.114,0.284,2.19,0.722,2.19,0.722c4.459-3.394,8.315-4.858,8.315-4.858s-0.446-0.219-1.639-0.204
		c-17.528,0.227-33.678,13.314-30.629,35.706c0.326,2.375,1.249,6.694,2.422,8.588c0.391-3.727,1.79-11.973,5.946-20.808
		c-1.444-0.518-2.643-0.731-2.643-0.731c0.424-0.89,1.014-2.025,1.014-2.025c3.075,0.58,5.792,1.866,8.145,3.73
		c-0.565,0.912-0.947,1.508-1.216,1.977c-0.825-0.649-1.658-1.21-2.577-1.719c-4.67,8.165-6.838,15.871-7.717,19.916
		c0.048,0.249,0.557,0.378,0.966,0.325c19.207-2.486,28.199-12.283,30.935-22.9c1.8-6.965,1.211-14.248-1.199-20.187
		C115.932,33.645,115.603,32.952,115.044,33.001z M98.529,54.153c-2.498-2.082-5.412-3.358-8.271-3.903c0,0,0.877-1.431,1.376-2.174
		c3.497,0.692,6.336,2.327,8.321,4.007C99.445,52.812,98.961,53.51,98.529,54.153z M101.683,49.725
		c-2.316-1.945-5.134-3.396-8.327-4.034c0.488-0.63,1.061-1.301,1.608-1.921c2.437,0.433,5.562,1.717,8.286,3.965
		C102.692,48.401,102.173,49.08,101.683,49.725z M105.194,45.5c-2.431-2.001-5.156-3.297-8.052-3.914
		c0.701-0.663,1.419-1.231,2.05-1.757c3.618,0.87,6.054,2.491,7.713,3.869C106.312,44.305,105.738,44.897,105.194,45.5z"/>
</g>
</svg>
